<?xml version="1.0" encoding="UTF-8" standalone="no"?><!DOCTYPE svg PUBLIC "-//W3C//DTD SVG 1.1//EN" "http://www.w3.org/Graphics/SVG/1.1/DTD/svg11.dtd"><svg width="100%" height="100%" viewBox="0 0 408 251" version="1.1" xmlns="http://www.w3.org/2000/svg" xmlns:xlink="http://www.w3.org/1999/xlink" xml:space="preserve" xmlns:serif="http://www.serif.com/" style="fill-rule:evenodd;clip-rule:evenodd;stroke-linejoin:round;stroke-miterlimit:1.41421;"><g><rect x="329.004" y="101" width="8" height="150" style="fill:#033;"/><path d="M307.004,5l35,0l20,96l-75,0l20,-96Z" style="fill:#ff7e28;fill-rule:nonzero;"/><path d="M292.004,5l15,0l-20,96l-45,-10l50,-86Z" style="fill:#ff9248;fill-rule:nonzero;"/><path d="M357.004,5l-15,0l20,96l45,-10l-50,-86Z" style="fill:#f60;fill-rule:nonzero;"/></g><rect x="69.004" y="199" width="252" height="24" style="fill:#744e36;"/><g><g><rect x="138.004" y="146" width="115" height="50" style="fill:#842626;"/><rect x="144.004" y="153" width="102" height="36" style="fill:#ccc;"/><path id="Ellipse22" d="M153.004,171.5c0,-8.561 6.939,-15.5 15.5,-15.5c8.56,0 15.5,6.939 15.5,15.5c0,8.561 -6.94,15.5 -15.5,15.5c-8.561,0 -15.5,-6.939 -15.5,-15.5Z" style="fill:#333;fill-rule:nonzero;"/><rect x="200.004" y="160" width="39" height="2" style="fill:#333;"/><path id="Ellipse23" d="M229.004,174c0,-1.657 1.343,-3 3,-3c1.657,0 3,1.343 3,3c0,1.657 -1.343,3 -3,3c-1.657,0 -3,-1.343 -3,-3Z" style="fill:#666;fill-rule:nonzero;"/><path id="Ellipse24" d="M202.004,174c0,-1.657 1.343,-3 3,-3c1.657,0 3,1.343 3,3c0,1.657 -1.343,3 -3,3c-1.657,0 -3,-1.343 -3,-3Z" style="fill:#666;fill-rule:nonzero;"/><path id="Ellipse25" d="M213.004,173.5c0,-3.038 2.462,-5.5 5.5,-5.5c3.037,0 5.5,2.462 5.5,5.5c0,3.038 -2.463,5.5 -5.5,5.5c-3.038,0 -5.5,-2.462 -5.5,-5.5Z" style="fill:#666;fill-rule:nonzero;"/></g></g><g><g><g><path d="M75,2c0,0 -36.333,88.333 -42,145l-6,-1c0,0 13.667,-77.667 48,-144Z" style="fill:#063;fill-rule:nonzero;"/><path d="M28,137c2.999,-0.086 -3.667,-19.667 -28,-29c0,0 4.667,29.667 28,29Z" style="fill:#063;fill-rule:nonzero;"/><path d="M33.61,136.595c-2.821,-1.218 10.784,-17.064 37.39,-16.595c0,0 -15.445,26.068 -37.39,16.595Z" style="fill:#063;fill-rule:nonzero;"/><path d="M35,121c2.999,-0.086 -3.667,-19.667 -28,-29c0,0 4.667,29.667 28,29Z" style="fill:#063;fill-rule:nonzero;"/><path d="M36.588,120.578c-2.716,-1.125 10.653,-17.258 36.412,-17.578c0,0 -15.279,26.335 -36.412,17.578Z" style="fill:#063;fill-rule:nonzero;"/><path d="M38.415,103.991c2.615,-0.074 -3.197,-16.948 -24.415,-24.991c0,0 4.069,25.565 24.415,24.99Z" style="fill:#063;fill-rule:nonzero;"/><path d="M39.564,105.155c-2.486,-0.804 8.493,-15.375 31.436,-17.155c0,0 -12.087,23.403 -31.436,17.155Z" style="fill:#063;fill-rule:nonzero;"/><path d="M43.462,86.991c2.406,-0.068 -2.941,-15.592 -22.462,-22.991c0,0 3.744,23.52 22.462,22.991Z" style="fill:#063;fill-rule:nonzero;"/><path d="M44.495,86.226c-2.167,-1.105 9.465,-12.279 30.505,-10.226c0,0 -13.644,18.824 -30.505,10.226Z" style="fill:#063;fill-rule:nonzero;"/><path d="M49.509,70.992c2.196,-0.062 -2.686,-14.236 -20.509,-20.992c0,0 3.418,21.474 20.509,20.992Z" style="fill:#063;fill-rule:nonzero;"/><path d="M49.447,71.18c-1.963,-0.893 7.853,-11.857 26.553,-11.18c0,0 -11.273,18.127 -26.553,11.18Z" style="fill:#063;fill-rule:nonzero;"/><path d="M52.602,54.993c1.778,-0.05 -2.174,-11.524 -16.602,-16.993c0,0 2.767,17.384 16.602,16.993Z" style="fill:#063;fill-rule:nonzero;"/><path d="M54.354,54.181c-1.545,-0.881 7.341,-9.145 22.646,-7.181c0,0 -10.622,14.037 -22.646,7.181Z" style="fill:#063;fill-rule:nonzero;"/><path d="M58.626,44.994c1.673,-0.044 -2.046,-10.168 -15.626,-14.994c0,0 2.604,15.339 15.626,14.994Z" style="fill:#063;fill-rule:nonzero;"/><path d="M59.321,43.154c-1.406,-0.75 5.841,-8.444 20.679,-7.154c0,0 -9.477,13.133 -20.679,7.154Z" style="fill:#063;fill-rule:nonzero;"/><path d="M61.626,33.994c1.673,-0.044 -2.046,-10.168 -15.626,-14.994c0,0 2.604,15.339 15.626,14.994Z" style="fill:#063;fill-rule:nonzero;"/><path d="M62.353,33.112c-1.554,-0.565 5.308,-8.852 19.647,-9.112c0,0 -7.554,13.502 -19.647,9.112Z" style="fill:#063;fill-rule:nonzero;"/><path d="M64.697,23.949c1.365,0.173 -0.307,-8.391 -10.697,-13.949c0,0 0.071,12.597 10.697,13.949Z" style="fill:#063;fill-rule:nonzero;"/><path d="M67.388,21.075c-1.328,-0.103 2.051,-7.93 13.612,-11.075c0,0 -3.71,11.845 -13.612,11.075Z" style="fill:#063;fill-rule:nonzero;"/><path d="M69.744,12.893c1.168,0.433 0.672,-7.283 -6.744,-12.893c0,0 -1.569,9.813 6.744,12.893Z" style="fill:#063;fill-rule:nonzero;"/></g></g><g><g><path d="M123.781,40.006c0,0 -69.286,65.9 -97.598,115.274l-5.08,-3.326c0,0 44.201,-65.298 102.678,-111.948Z" style="fill:#0f6f24;fill-rule:nonzero;"/><path d="M25.691,144.153c2.778,1.128 4.674,-19.403 -13.773,-37.704c0,0 -7.84,28.921 13.773,37.704Z" style="fill:#0f6f24;fill-rule:nonzero;"/><path d="M30.988,146.041c-2.083,-2.245 16.828,-11.215 40.971,-0.08c0,0 -24.766,17.547 -40.971,0.08Z" style="fill:#0f6f24;fill-rule:nonzero;"/><path d="M38.624,132.385c2.778,1.128 4.674,-19.403 -13.773,-37.704c0,0 -7.84,28.921 13.773,37.704Z" style="fill:#0f6f24;fill-rule:nonzero;"/><path d="M40.249,132.639c-2.025,-2.119 16.788,-11.445 40.478,-1.37c0,0 -24.723,17.858 -40.478,1.37Z" style="fill:#0f6f24;fill-rule:nonzero;"/><path d="M48.691,118.254c2.422,0.985 3.993,-16.736 -12.131,-32.606c0,0 -6.713,24.941 12.131,32.606Z" style="fill:#0f6f24;fill-rule:nonzero;"/><path d="M49.267,119.777c-1.947,-1.732 14.042,-10.597 35.754,-2.986c0,0 -20.608,16.469 -35.754,2.986Z" style="fill:#0f6f24;fill-rule:nonzero;"/><path d="M60.245,104.789c2.228,0.906 3.674,-15.397 -11.16,-29.998c0,0 -6.176,22.947 11.16,29.998Z" style="fill:#0f6f24;fill-rule:nonzero;"/><path d="M61.502,104.507c-1.531,-1.879 13.669,-7.384 32.075,2.955c0,0 -20.163,11.668 -32.075,-2.955Z" style="fill:#0f6f24;fill-rule:nonzero;"/><path d="M72.306,92.638c2.034,0.828 3.354,-14.058 -10.19,-27.389c0,0 -5.639,20.951 10.19,27.389Z" style="fill:#0f6f24;fill-rule:nonzero;"/><path d="M72.173,92.785c-1.431,-1.605 12.023,-7.648 28.849,0.494c0,0 -17.71,11.988 -28.849,-0.494Z" style="fill:#0f6f24;fill-rule:nonzero;"/><path d="M81.666,79.299c1.646,0.67 2.715,-11.38 -8.249,-22.172c0,0 -4.565,16.961 8.249,22.172Z" style="fill:#0f6f24;fill-rule:nonzero;"/><path d="M83.599,79.264c-1.054,-1.425 10.448,-5.382 23.644,2.567c0,0 -15.445,8.521 -23.644,-2.567Z" style="fill:#0f6f24;fill-rule:nonzero;"/><path d="M91.256,72.608c1.549,0.634 2.279,-10.092 -8.172,-19.956c0,0 -3.879,15.03 8.172,19.956Z" style="fill:#0f6f24;fill-rule:nonzero;"/><path d="M92.643,71.211c-0.98,-1.25 8.789,-5.347 21.834,1.8c0,0 -14.029,8.158 -21.834,-1.8Z" style="fill:#0f6f24;fill-rule:nonzero;"/><path d="M98.49,63.789c1.549,0.633 2.279,-10.093 -8.172,-19.957c0,0 -3.879,15.03 8.172,19.957Z" style="fill:#0f6f24;fill-rule:nonzero;"/><path d="M99.515,63.277c-1.191,-1.14 8.468,-5.933 21.689,-0.399c0,0 -12.421,9.268 -21.689,0.399Z" style="fill:#0f6f24;fill-rule:nonzero;"/><path d="M105.399,55.867c1.178,0.708 3.144,-7.772 -4.09,-17.02c0,0 -5.077,11.512 4.09,17.02Z" style="fill:#0f6f24;fill-rule:nonzero;"/><path d="M109.034,54.331c-1.173,-0.629 5.112,-6.404 16.97,-4.618c0,0 -8.228,9.305 -16.971,4.618Z" style="fill:#0f6f24;fill-rule:nonzero;"/><path d="M114.528,47.821c0.891,0.864 3.587,-6.369 -0.906,-14.467c0,0 -5.441,8.313 0.906,14.467Z" style="fill:#0f6f24;fill-rule:nonzero;"/></g></g><g><g><path d="M124.781,91.006c0,0 -69.286,65.9 -97.598,115.274l-5.08,-3.326c0,0 44.201,-65.298 102.678,-111.948Z" style="fill:#138c2f;fill-rule:nonzero;"/><path d="M26.691,195.153c2.778,1.128 4.674,-19.403 -13.773,-37.704c0,0 -7.84,28.921 13.773,37.704Z" style="fill:#138c2f;fill-rule:nonzero;"/><path d="M31.988,197.041c-2.083,-2.245 16.828,-11.215 40.971,-0.08c0,0 -24.766,17.547 -40.971,0.08Z" style="fill:#138c2f;fill-rule:nonzero;"/><path d="M39.624,183.385c2.778,1.128 4.674,-19.403 -13.773,-37.704c0,0 -7.84,28.921 13.773,37.704Z" style="fill:#138c2f;fill-rule:nonzero;"/><path d="M41.249,183.639c-2.025,-2.119 16.788,-11.445 40.478,-1.37c0,0 -24.723,17.858 -40.478,1.37Z" style="fill:#138c2f;fill-rule:nonzero;"/><path d="M49.691,169.254c2.422,0.985 3.993,-16.736 -12.131,-32.606c0,0 -6.713,24.942 12.131,32.606Z" style="fill:#138c2f;fill-rule:nonzero;"/><path d="M50.267,170.778c-1.947,-1.733 14.042,-10.598 35.754,-2.987c0,0 -20.608,16.469 -35.754,2.987Z" style="fill:#138c2f;fill-rule:nonzero;"/><path d="M61.245,155.789c2.228,0.906 3.674,-15.397 -11.16,-29.998c0,0 -6.176,22.947 11.16,29.998Z" style="fill:#138c2f;fill-rule:nonzero;"/><path d="M62.502,155.507c-1.531,-1.879 13.669,-7.384 32.075,2.955c0,0 -20.163,11.668 -32.075,-2.955Z" style="fill:#138c2f;fill-rule:nonzero;"/><path d="M73.306,143.638c2.034,0.828 3.354,-14.058 -10.19,-27.389c0,0 -5.639,20.951 10.19,27.389Z" style="fill:#138c2f;fill-rule:nonzero;"/><path d="M73.173,143.785c-1.431,-1.604 12.023,-7.648 28.849,0.494c0,0 -17.71,11.987 -28.849,-0.494Z" style="fill:#138c2f;fill-rule:nonzero;"/><path d="M82.666,130.299c1.646,0.67 2.715,-11.38 -8.249,-22.172c0,0 -4.565,16.961 8.249,22.172Z" style="fill:#138c2f;fill-rule:nonzero;"/><path d="M84.599,130.264c-1.054,-1.425 10.448,-5.382 23.644,2.567c0,0 -15.445,8.521 -23.644,-2.567Z" style="fill:#138c2f;fill-rule:nonzero;"/><path d="M92.256,123.608c1.549,0.634 2.279,-10.092 -8.172,-19.956c0,0 -3.879,15.03 8.172,19.956Z" style="fill:#138c2f;fill-rule:nonzero;"/><path d="M93.643,122.211c-0.98,-1.25 8.789,-5.347 21.834,1.8c0,0 -14.029,8.158 -21.834,-1.8Z" style="fill:#138c2f;fill-rule:nonzero;"/><path d="M99.49,114.789c1.549,0.633 2.279,-10.093 -8.172,-19.957c0,0 -3.879,15.03 8.172,19.957Z" style="fill:#138c2f;fill-rule:nonzero;"/><path d="M100.515,114.277c-1.191,-1.14 8.468,-5.933 21.689,-0.399c0,0 -12.421,9.268 -21.689,0.399Z" style="fill:#138c2f;fill-rule:nonzero;"/><path d="M106.399,106.867c1.178,0.708 3.144,-7.772 -4.09,-17.02c0,0 -5.077,11.512 4.09,17.02Z" style="fill:#138c2f;fill-rule:nonzero;"/><path d="M110.034,105.331c-1.173,-0.629 5.112,-6.404 16.97,-4.618c0,0 -8.228,9.305 -16.971,4.618Z" style="fill:#138c2f;fill-rule:nonzero;"/><path d="M115.528,98.821c0.891,0.864 3.587,-6.369 -0.906,-14.467c0,0 -5.441,8.313 0.906,14.467Z" style="fill:#138c2f;fill-rule:nonzero;"/></g></g></g></svg>