<?xml version="1.0" encoding="UTF-8" standalone="no"?><!DOCTYPE svg PUBLIC "-//W3C//DTD SVG 1.1//EN" "http://www.w3.org/Graphics/SVG/1.1/DTD/svg11.dtd"><svg width="100%" height="100%" viewBox="0 0 260 48" version="1.1" xmlns="http://www.w3.org/2000/svg" xmlns:xlink="http://www.w3.org/1999/xlink" xml:space="preserve" xmlns:serif="http://www.serif.com/" style="fill-rule:evenodd;clip-rule:evenodd;stroke-linejoin:round;stroke-miterlimit:1.41421;"><g><path d="M0.002,4.884l2.031,0l0,10.744l10.331,-10.744l2.623,0l-7.711,7.865l8.045,10.127l-2.545,0l-6.914,-8.712l-3.829,3.88l0,4.832l-2.031,0l0,-17.992Z" style="fill:#f5f5dc;fill-rule:nonzero;"/><path d="M26.038,14.06c2.699,0 4.628,-1.387 4.628,-3.7l0,-0.052c0,-2.211 -1.698,-3.548 -4.602,-3.548l-5.552,0l0,7.3l5.526,0Zm-7.558,-9.176l7.737,0c2.211,0 3.985,0.668 5.116,1.799c0.874,0.874 1.389,2.133 1.389,3.548l0,0.051c0,2.982 -2.056,4.73 -4.885,5.243l5.527,7.351l-2.494,0l-5.218,-6.991l-5.14,0l0,6.991l-2.032,0l0,-17.992Z" style="fill:#f5f5dc;fill-rule:nonzero;"/><path d="M52.511,13.932l0,-0.051c0,-4.088 -2.981,-7.429 -7.094,-7.429c-4.113,0 -7.044,3.29 -7.044,7.378l0,0.051c0,4.086 2.982,7.428 7.095,7.428c4.114,0 7.043,-3.29 7.043,-7.377m-16.245,0l0,-0.051c0,-4.962 3.727,-9.306 9.202,-9.306c5.476,0 9.15,4.293 9.15,9.255l0,0.051c0,4.961 -3.726,9.305 -9.201,9.305c-5.475,0 -9.151,-4.293 -9.151,-9.254" style="fill:#f5f5dc;fill-rule:nonzero;"/><path d="M56.39,19.947l1.465,-1.261c1.105,1.672 2.237,2.572 4.114,2.572c2.03,0 3.52,-1.466 3.52,-4.319l0,-12.055l2.057,0l0,12.03c0,2.108 -0.617,3.702 -1.645,4.729c-1.001,0.976 -2.364,1.49 -3.958,1.49c-2.699,0 -4.421,-1.335 -5.553,-3.186" style="fill:#f5f5dc;fill-rule:nonzero;"/><path d="M83.379,16.296l-4.087,-9.175l-4.113,9.175l8.2,0Zm-5.013,-11.54l1.903,0l8.2,18.121l-2.185,0l-2.107,-4.755l-9.796,0l-2.133,4.755l-2.082,0l8.2,-18.121Z" style="fill:#f5f5dc;fill-rule:nonzero;"/><path d="M99.982,3.033l-1.851,0l-2.828,-3.033l1.852,0l1.926,1.543l1.93,-1.543l1.799,0l-2.828,3.033Zm-9.819,10.899l0,-0.051c0,-5.09 3.804,-9.305 9.099,-9.305c3.266,0 5.218,1.157 7.018,2.853l-1.387,1.49c-1.518,-1.439 -3.214,-2.467 -5.657,-2.467c-3.984,0 -6.966,3.24 -6.966,7.378l0,0.051c0,4.163 3.008,7.428 6.966,7.428c2.468,0 4.087,-0.951 5.81,-2.596l1.337,1.311c-1.877,1.902 -3.932,3.162 -7.198,3.162c-5.191,0 -9.022,-4.087 -9.022,-9.254" style="fill:#f5f5dc;fill-rule:nonzero;"/><path d="M109.928,4.884l13.006,0l0,1.85l-10.975,0l0,6.144l9.818,0l0,1.85l-9.818,0l0,6.299l11.103,0l0,1.849l-13.134,0l0,-17.992Z" style="fill:#f5f5dc;fill-rule:nonzero;"/><path d="M125.606,4.884l2.261,0l6.401,15.5l6.426,-15.5l2.184,0l-7.736,18.121l-1.801,0l-7.735,-18.121Z" style="fill:#f5f5dc;fill-rule:nonzero;"/><path d="M155.524,16.296l-4.087,-9.175l-4.112,9.175l8.199,0Zm-5.013,-11.54l1.902,0l8.199,18.121l-2.184,0l-2.106,-4.755l-9.795,0l-2.133,4.755l-2.082,0l8.199,-18.121Z" style="fill:#f5f5dc;fill-rule:nonzero;"/><path d="M178.628,3.033l-1.851,0l-2.826,-3.033l1.849,0l1.928,1.543l1.928,-1.543l1.801,0l-2.829,3.033Zm-7.942,17.222l1.259,-1.49c1.877,1.695 3.676,2.544 6.169,2.544c2.416,0 4.01,-1.285 4.01,-3.059l0,-0.051c0,-1.671 -0.899,-2.621 -4.678,-3.419c-4.14,-0.899 -6.04,-2.236 -6.04,-5.192l0,-0.052c0,-2.828 2.493,-4.909 5.912,-4.909c2.622,0 4.497,0.744 6.323,2.21l-1.183,1.568c-1.67,-1.362 -3.341,-1.953 -5.191,-1.953c-2.34,0 -3.832,1.285 -3.832,2.904l0,0.052c0,1.697 0.927,2.647 4.885,3.496c4.01,0.873 5.86,2.339 5.86,5.089l0,0.051c0,3.085 -2.571,5.089 -6.143,5.089c-2.853,0 -5.192,-0.95 -7.351,-2.878" style="fill:#f5f5dc;fill-rule:nonzero;"/><path d="M188.316,4.884l2.032,0l0,10.744l10.332,-10.744l2.622,0l-7.71,7.865l8.044,10.127l-2.543,0l-6.915,-8.712l-3.83,3.88l0,4.832l-2.032,0l0,-17.992Z" style="fill:#f5f5dc;fill-rule:nonzero;"/><path d="M220.935,13.932l0,-0.051c0,-4.088 -2.982,-7.429 -7.094,-7.429c-4.115,0 -7.045,3.29 -7.045,7.378l0,0.051c0,4.086 2.983,7.428 7.096,7.428c4.113,0 7.043,-3.29 7.043,-7.377m-16.245,0l0,-0.051c0,-4.962 3.727,-9.306 9.202,-9.306c5.473,0 9.149,4.293 9.149,9.255l0,0.051c0,4.961 -3.726,9.305 -9.2,9.305c-5.475,0 -9.151,-4.293 -9.151,-9.254" style="fill:#f5f5dc;fill-rule:nonzero;"/><path d="M227.332,4.884l2.031,0l0,16.117l10.127,0l0,1.875l-12.158,0l0,-17.992Z" style="fill:#f5f5dc;fill-rule:nonzero;"/><path d="M254.91,16.296l-4.085,-9.175l-4.114,9.175l8.199,0Zm-5.012,-11.54l1.904,0l8.198,18.121l-2.184,0l-2.109,-4.755l-9.792,0l-2.133,4.755l-2.083,0l8.199,-18.121Z" style="fill:#f5f5dc;fill-rule:nonzero;"/><path d="M62.919,30.202l-11.845,11.843l-11.844,-11.843l23.689,0Z" style="fill:#f5f5dc;fill-rule:nonzero;"/><path d="M5.183,30.202l11.843,11.843l11.843,-11.843l-23.686,0Z" style="fill:#f5f5dc;fill-rule:nonzero;"/><path d="M73.279,30.202l11.845,11.843l11.845,-11.843l-23.69,0Z" style="fill:#f5f5dc;fill-rule:nonzero;"/><path d="M141.377,30.202l11.845,11.843l11.845,-11.843l-23.69,0Z" style="fill:#f5f5dc;fill-rule:nonzero;"/><path d="M107.327,30.202l11.846,11.843l11.843,-11.843l-23.689,0Z" style="fill:#f5f5dc;fill-rule:nonzero;"/><path d="M175.425,30.202l11.846,11.843l11.844,-11.843l-23.69,0Z" style="fill:#f5f5dc;fill-rule:nonzero;"/><path d="M124.352,47.226l23.689,0l-11.845,-11.844l-11.844,11.844Z" style="fill:#f5f5dc;fill-rule:nonzero;"/><path d="M0,47.226l11.845,0l-11.845,-11.844l0,11.844Z" style="fill:#f5f5dc;fill-rule:nonzero;"/><path d="M158.403,47.226l23.686,0l-11.845,-11.844l-11.841,11.844Z" style="fill:#f5f5dc;fill-rule:nonzero;"/><path d="M90.305,47.226l23.686,0l-11.841,-11.844l-11.845,11.844Z" style="fill:#f5f5dc;fill-rule:nonzero;"/><path d="M22.206,47.226l23.688,0l-11.846,-11.844l-11.842,11.844Z" style="fill:#f5f5dc;fill-rule:nonzero;"/><path d="M56.256,47.226l23.687,0l-11.844,-11.844l-11.843,11.844Z" style="fill:#f5f5dc;fill-rule:nonzero;"/></g></svg>