<?xml version="1.0" encoding="UTF-8" standalone="no"?><!DOCTYPE svg PUBLIC "-//W3C//DTD SVG 1.1//EN" "http://www.w3.org/Graphics/SVG/1.1/DTD/svg11.dtd"><svg width="100%" height="100%" viewBox="0 0 21 19" version="1.1" xmlns="http://www.w3.org/2000/svg" xmlns:xlink="http://www.w3.org/1999/xlink" xml:space="preserve" xmlns:serif="http://www.serif.com/" style="fill-rule:evenodd;clip-rule:evenodd;stroke-linejoin:round;stroke-miterlimit:1.41421;"><path id="Ellipse31" d="M4.751,13.463l4.263,-13.463l2.363,0.748l-0.003,0.008c1.158,0.411 2.527,1.073 3.611,2.119c2.343,2.259 5.321,2.512 5.321,2.512c0,0 -4.533,0.633 -7.187,-1.448c-0.845,-0.663 -1.669,-0.984 -2.4,-1.113l-0.622,1.962c1.158,0.411 2.527,1.074 3.611,2.119c2.343,2.259 5.321,2.512 5.321,2.512c0,0 -4.533,0.633 -7.187,-1.448c-0.845,-0.663 -1.669,-0.984 -2.4,-1.113l-3.053,9.641c-0.414,1.305 -2.159,1.916 -3.899,1.365c-1.74,-0.551 -2.815,-2.055 -2.402,-3.36c0.414,-1.305 2.159,-1.916 3.899,-1.365c0.272,0.086 0.527,0.195 0.764,0.324Z" style="fill:#15565b;fill-rule:nonzero;"/></svg>