<?xml version="1.0" encoding="UTF-8" standalone="no"?><!DOCTYPE svg PUBLIC "-//W3C//DTD SVG 1.1//EN" "http://www.w3.org/Graphics/SVG/1.1/DTD/svg11.dtd"><svg width="100%" height="100%" viewBox="0 0 18 29" version="1.1" xmlns="http://www.w3.org/2000/svg" xmlns:xlink="http://www.w3.org/1999/xlink" xml:space="preserve" xmlns:serif="http://www.serif.com/" style="fill-rule:evenodd;clip-rule:evenodd;stroke-linejoin:round;stroke-miterlimit:1.41421;"><g><path id="Ellipse28" d="M0.787,27.153c-0.375,-1.241 0.661,-2.652 2.316,-3.153c1.654,-0.5 3.299,0.1 3.675,1.341c0.375,1.24 -0.662,2.652 -2.316,3.152c-1.654,0.501 -3.299,-0.099 -3.675,-1.34Z" style="fill:#15565b;fill-rule:nonzero;"/><path id="Ellipse29" d="M11.182,18.286c-0.375,-1.24 0.662,-2.652 2.316,-3.152c1.654,-0.501 3.299,0.099 3.675,1.34c0.375,1.241 -0.661,2.652 -2.316,3.153c-1.654,0.5 -3.299,-0.1 -3.675,-1.341Z" style="fill:#15565b;fill-rule:nonzero;"/><path d="M2.246,10.364l-2.246,0.68l4.531,14.976l2.247,-0.679l-4.532,-14.977Z" style="fill:#15565b;"/><path d="M12.642,1.498l-2.247,0.679l4.531,14.977l2.247,-0.68l-4.531,-14.976Z" style="fill:#15565b;"/><path d="M0,11.044l12.188,-11.044l0.907,2.995l-12.189,11.044l-0.906,-2.995Z" style="fill:#15565b;fill-rule:nonzero;"/><path d="M1.287,15.297l12.188,-11.044l0.453,1.498l-12.188,11.044l-0.453,-1.498Z" style="fill:#15565b;fill-rule:nonzero;"/></g></svg>