<?xml version="1.0" encoding="UTF-8" standalone="no"?><!DOCTYPE svg PUBLIC "-//W3C//DTD SVG 1.1//EN" "http://www.w3.org/Graphics/SVG/1.1/DTD/svg11.dtd"><svg width="100%" height="100%" viewBox="0 0 20 23" version="1.1" xmlns="http://www.w3.org/2000/svg" xmlns:xlink="http://www.w3.org/1999/xlink" xml:space="preserve" xmlns:serif="http://www.serif.com/" style="fill-rule:evenodd;clip-rule:evenodd;stroke-linejoin:round;stroke-miterlimit:1.41421;"><path id="Ellipse31" d="M5,17.095l0,-17.095l3,0l0,0.01c1.486,0.05 3.308,0.315 4.941,1.125c3.53,1.751 7.059,0.955 7.059,0.955c0,0 -5,2.387 -8.823,0.955c-1.218,-0.456 -2.286,-0.525 -3.177,-0.407l0,17.362c0,1.657 -1.791,3 -4,3c-2.209,0 -4,-1.343 -4,-3c0,-1.657 1.791,-3 4,-3c0.345,0 0.68,0.033 1,0.095Z" style="fill:#15565b;fill-rule:nonzero;"/></svg>