<?xml version="1.0" encoding="UTF-8" standalone="no"?><!DOCTYPE svg PUBLIC "-//W3C//DTD SVG 1.1//EN" "http://www.w3.org/Graphics/SVG/1.1/DTD/svg11.dtd"><svg width="100%" height="100%" viewBox="0 0 24 29" version="1.1" xmlns="http://www.w3.org/2000/svg" xmlns:xlink="http://www.w3.org/1999/xlink" xml:space="preserve" xmlns:serif="http://www.serif.com/" style="fill-rule:evenodd;clip-rule:evenodd;stroke-linejoin:round;stroke-miterlimit:1.41421;"><g><path id="Ellipse28" d="M0,26c0,-1.657 1.791,-3 4,-3c2.209,0 4,1.343 4,3c0,1.657 -1.791,3 -4,3c-2.209,0 -4,-1.343 -4,-3Z" style="fill:#15565b;fill-rule:nonzero;"/><path id="Ellipse29" d="M16,21c0,-1.657 1.791,-3 4,-3c2.209,0 4,1.343 4,3c0,1.657 -1.791,3 -4,3c-2.209,0 -4,-1.343 -4,-3Z" style="fill:#15565b;fill-rule:nonzero;"/><rect x="5" y="6" width="3" height="20" style="fill:#15565b;"/><rect x="21" y="1" width="3" height="20" style="fill:#15565b;"/><path d="M5,6l19,-6l0,3l-19,6l0,-3Z" style="fill:#15565b;fill-rule:nonzero;"/></g></svg>