<?xml version="1.0" encoding="UTF-8" standalone="no"?><!DOCTYPE svg PUBLIC "-//W3C//DTD SVG 1.1//EN" "http://www.w3.org/Graphics/SVG/1.1/DTD/svg11.dtd"><svg width="100%" height="100%" viewBox="0 0 163 214" version="1.1" xmlns="http://www.w3.org/2000/svg" xmlns:xlink="http://www.w3.org/1999/xlink" xml:space="preserve" xmlns:serif="http://www.serif.com/" style="fill-rule:evenodd;clip-rule:evenodd;stroke-linejoin:round;stroke-miterlimit:1.41421;"><g><path d="M163,0l0,214l-163,0l0,-214l163,0Zm-86,206l0,-94.938l-70,0.001l0,94.937l70,0Zm78,0l0,-94.938l-70,0.001l0,94.937l70,0Zm-78,-101.063l0,-97.937l-70,0l0,97.938l70,-0.001Zm78,0.001l0,-97.938l-70,0l0,97.938l70,-0.001Z" style="fill:#fff;"/><path d="M7,198c0,0 2.333,-4.667 9,-5c6.667,-0.333 16.667,3.667 22,3c5.333,-0.667 12,-2.333 18,-2c6,0.333 21,2 21,2l0,10l-70,0l0,-8Z" style="fill:#d2e4ff;fill-opacity:0.8118;fill-rule:nonzero;"/><path d="M85,198c0,0 6.667,3.333 9,3c2.333,-0.333 10,-1.667 15,-2c5,-0.333 18.333,2.333 23,1c4.667,-1.333 21.333,-4.333 23,-12l0,18l-70,0l0,-8Z" style="fill:#adbed6;fill-opacity:0.8;fill-rule:nonzero;"/></g></svg>